# xmcd CD database file
#
# Track frame offsets:
#	150
#	11498
#	21240
#	31790
#	42920
#	51610
#	62983
#	72298
#	82503
#	97560
#	109163
#	124778
#	135230
#	145925
#
# Disc length: 2057 seconds
#
# Revision: 0
# Processed by: cddbd v1.4PL0 Copyright (c) Steve Scherf et al.
# Submitted via: CDex 1.50Beta7
#
DISCID=af08070e
DTITLE=Chet Atkins - Oh! By Jingo! Oh! By Gee! You're The Only Girl For Me
DYEAR=1900
DGENRE=Country
TTITLE0=Django's Castle
TTITLE1=Memphis Blues
TTITLE2=12th Street Rag
TTITLE3=Galloping On The Guitar
TTITLE4=Country Gentleman
TTITLE5=Rainbow
TTITLE6=Yankee Doodle Dixie
TTITLE7=Main Street Breakdown
TTITLE8=Indiana(Back Home Again In Indiana)
TTITLE9=Alabama Jubilee
TTITLE10=Caravan
TTITLE11=Corrine, Corrina
TTITLE12=Meet Mr. Callaghan
TTITLE13=Oh! By Jingo! Oh! By Gee! You're The Only Girl For Me
EXTD=
EXTT0=
EXTT1=
EXTT2=
EXTT3=
EXTT4=
EXTT5=
EXTT6=
EXTT7=
EXTT8=
EXTT9=
EXTT10=
EXTT11=
EXTT12=
EXTT13=
PLAYORDER=
